# xmcd
#
# Track frame offsets: 
#        150
#        44600
#        95270
#        161740
#        239605
#        285045
#
# Disc length: 4665 seconds
#
# Revision: 3
# Processed by: cddbd v1.5.2PL0 Copyright (c) Steve Scherf et al.
# Submitted via: ExactAudioCopy v1.0b3
#
DISCID=48123706
DTITLE=Gary Bertini - Mahler: Symphonies 1-10 - Das Lied von der Erde [
DTITLE=Box Set] Disc 5
DYEAR=1987
DGENRE=Classical
TTITLE0=Mahler Symphony No.4 in G - IV. Sehr behaglich
TTITLE1=Mahler Symphony No.5 in C sharp minor Part I - I. Trauermarsch
TTITLE2=Mahler Symphony No.5 in C sharp minor Part I - II. Sturmisch b
TTITLE2=ewegt, grosster vehemenz
TTITLE3=Mahler Symphony No.5 in C sharp minor Part II - III. Scherzo
TTITLE4=Mahler Symphony No.5 in C sharp minor Part III - IV. Adagietto
TTITLE4=Sehr langsam
TTITLE5=Mahler Symphony No.5 in C sharp minor Part III - V. Rondo - Fi
TTITLE5=nale. Allegro
EXTD=
EXTT0=
EXTT1=
EXTT2=
EXTT3=
EXTT4=
EXTT5=
PLAYORDER=
